
<svg width="134px" height="40px" viewBox="0 0 134 40" version="1.1" xmlns="http://www.w3.org/2000/svg" xmlns:xlink="http://www.w3.org/1999/xlink">
    <g id="Page-1" stroke="none" stroke-width="1" fill="none" fill-rule="evenodd">
        <path d="M0.864,36.776 C0.864,36.2959976 1.08799776,35.4160064 1.536,34.136 L5.376,22.328 C6.30400464,19.5759862 7.47199296,16.3440186 8.88,12.632 C10.288007,8.91998144 11.7759922,5.28801776 13.344,1.736 C12.2559946,1.96000112 11.2000051,2.28799784 10.176,2.72 C9.15199488,3.15200216 8.34400296,3.53599832 7.752,3.872 C7.15999704,4.20800168 6.80000064,4.376 6.672,4.376 C6.44799888,4.376 6.14400192,4.2160016 5.76,3.896 C5.37599808,3.5759984 5.184,3.30400112 5.184,3.08 C9.28002048,1.3199912 12.8159851,0.44 15.792,0.44 C17.7760099,0.44 19.6799909,0.76799672 21.504,1.424 C23.3280091,2.08000328 24.8879935,3.13599272 26.184,4.592 C27.4800065,6.04800728 28.128,7.75199024 28.128,9.704 C28.128,11.5920094 27.5840054,13.2559928 26.496,14.696 C25.4079946,16.1360072 24.1200074,17.2239963 22.632,17.96 C21.1439926,18.6960037 19.4640094,19.2959977 17.592,19.76 C15.7199906,20.2240023 14.184006,20.5119994 12.984,20.624 C11.783994,20.7360006 10.7360045,20.792 9.84,20.792 L9.36,20.792 L4.176,39.176 C3.31199568,39.176 2.54400336,38.9440023 1.872,38.48 C1.19999664,38.0159977 0.864,37.4480034 0.864,36.776 Z M9.552,20.024 C11.4080093,19.9279995 13.2079913,19.6320025 14.952,19.136 C16.6960087,18.6399975 18.3279924,17.9600043 19.848,17.096 C21.3680076,16.2319957 22.5919954,15.0880071 23.52,13.664 C24.4480046,12.2399929 24.912,10.6480088 24.912,8.888 C24.912,6.45598784 24.0800083,4.61600624 22.416,3.368 C20.7519917,2.11999376 18.6880123,1.48000016 16.224,1.448 C14.2719902,5.32001936 12.0480125,11.5119574 9.552,20.024 Z M25.152,31.496 C25.152,29.3199891 25.7759938,26.4160182 27.024,22.784 C28.2720062,19.1519818 29.7199918,15.7120162 31.368,12.464 C33.0160082,9.21598376 34.6799916,6.40001192 36.36,4.016 C38.0400084,1.63198808 39.279996,0.44 40.08,0.44 C40.5280022,0.44 40.9039985,0.839996 41.208,1.64 C41.5120015,2.44 41.664,3.22399616 41.664,3.992 C41.664,6.392012 40.3520131,10.0479754 37.728,14.96 C35.1039869,19.8720246 32.1600163,23.6719866 28.896,26.36 C28.4799979,28.2160093 28.272,29.8319931 28.272,31.208 C28.272,33.6720123 28.975993,34.904 30.384,34.904 C31.5680059,34.904 32.7759938,34.1520075 34.008,32.648 C35.2400062,31.1439925 36.3359952,29.3360106 37.296,27.224 L38.016,27.608 C35.2639862,33.4960294 32.2720162,36.44 29.04,36.44 L28.992,36.44 C26.4319872,36.44 25.152,34.7920165 25.152,31.496 Z M29.328,24.728 C31.9520131,22.0719867 34.4159885,18.5760217 36.72,14.24 C39.0240115,9.90397832 40.176,6.8560088 40.176,5.096 C40.176,4.58399744 40.0640011,4.328 39.84,4.328 C39.3919978,4.328 38.5040066,5.35998968 37.176,7.424 C35.8479934,9.48801032 34.4160077,12.1679835 32.88,15.464 C31.3439923,18.7600165 30.1600042,21.8479856 29.328,24.728 Z M35.088,33.272 C35.088,31.3839906 35.7519934,29.2880115 37.08,26.984 C38.4080066,24.6799885 40.1279894,22.6960083 42.24,21.032 C44.3520106,19.3679917 46.3999901,18.536 48.384,18.536 C49.6320062,18.536 50.6719958,18.8719966 51.504,19.544 C52.3360042,20.2160034 52.752,21.0799947 52.752,22.136 C52.752,23.5120069 51.9680078,24.2 50.4,24.2 C50.5600008,23.6239971 50.64,23.0640027 50.64,22.52 C50.64,20.727991 49.8560078,19.832 48.288,19.832 C46.879993,19.832 45.3840079,20.6399919 43.8,22.256 C42.2159921,23.8720081 40.920005,25.7439894 39.912,27.872 C38.903995,30.0000106 38.4,31.8479922 38.4,33.416 C38.4,34.6640062 38.8319957,35.288 39.696,35.288 C40.2720029,35.288 40.9439962,35.0160027 41.712,34.472 C42.4800038,33.9279973 43.1839968,33.3200034 43.824,32.648 C44.4640032,31.9759966 45.2239956,31.0720057 46.104,29.936 C46.9840044,28.7999943 47.6319979,27.928003 48.048,27.32 L49.776,24.824 C51.0560064,25.0480011 51.696,25.4479971 51.696,26.024 C51.696,26.2800013 51.2320046,27.2399917 50.304,28.904 C49.3759954,30.5680083 48.912,31.8319957 48.912,32.696 C48.912,33.2400027 49.0479986,33.7279978 49.32,34.16 C49.5920014,34.5920022 49.9999973,34.808 50.544,34.808 C51.4720046,34.808 52.639993,34.1440066 54.048,32.816 C55.456007,31.4879934 56.8479931,29.624012 58.224,27.224 L58.704,27.704 C57.711995,30.2640128 56.312009,32.3599918 54.504,33.992 C52.695991,35.6240082 50.9280086,36.44 49.2,36.44 C48.0799944,36.44 47.224003,36.1120033 46.632,35.456 C46.039997,34.7999967 45.744,34.0080046 45.744,33.08 C45.744,32.6959981 45.7919995,32.2320027 45.888,31.688 C44.4479928,33.6080096 43.1600057,35.0159955 42.024,35.912 C40.8879943,36.8080045 39.7600056,37.256 38.64,37.256 C37.5839947,37.256 36.7280033,36.9120034 36.072,36.224 C35.4159967,35.536 35.088,34.5520064 35.088,33.272 Z M55.44,34.664 C55.44,34.5679995 55.7199972,33.816007 56.28,32.408 C56.8400028,30.999993 57.4079971,29.3600094 57.984,27.488 C58.5600029,25.6159906 58.848,24.0720061 58.848,22.856 C59.456003,22.1839966 60.1919957,21.848 61.056,21.848 C61.9200043,21.848 62.352,22.2639958 62.352,23.096 C62.352,24.1840054 61.8400051,26.2959843 60.816,29.432 C64.4960184,23.7999718 67.8239851,20.984 70.8,20.984 C71.9520058,20.984 72.831997,21.4079958 73.44,22.256 C74.048003,23.1040042 74.352,24.1199941 74.352,25.304 C74.352,26.3600053 74.0240033,27.7039918 73.368,29.336 C72.7119967,30.9680082 72.384,32.1519963 72.384,32.888 C72.384,34.1040061 72.8639952,34.712 73.824,34.712 C75.8080099,34.712 78.0479875,32.216025 80.544,27.224 L81.072,27.848 C78.7679885,33.256027 76.0000162,35.96 72.768,35.96 C71.6799946,35.96 70.8480029,35.6800028 70.272,35.12 C69.6959971,34.5599972 69.408,33.8160046 69.408,32.888 C69.408,32.2479968 69.6399977,31.1680076 70.104,29.648 C70.5680023,28.1279924 70.8,26.984 70.8,26.216 C70.8,24.6479922 70.1600064,23.864 68.88,23.864 C68.1119962,23.864 67.2880044,24.167997 66.408,24.776 C65.5279956,25.384003 64.7520034,26.0399965 64.08,26.744 C63.4079966,27.4480035 62.6160046,28.4719933 61.704,29.816 C60.7919954,31.1600067 60.1440019,32.1519968 59.76,32.792 L57.984,35.72 C56.7999941,35.72 55.9520026,35.3680035 55.44,34.664 Z M91.824,32.216 C91.824,30.9679938 92.1599966,29.2880106 92.832,27.176 C93.5040034,25.0639894 94.3999944,23.1280088 95.52,21.368 C96.6400056,19.6079912 97.7119949,18.728 98.736,18.728 C99.4400035,18.728 99.792,19.0799965 99.792,19.784 C99.792,20.1680019 99.3760042,21.0479931 98.544,22.424 C97.7119958,23.8000069 96.8800042,25.3599913 96.048,27.104 C95.2159958,28.8480087 94.8,30.3759934 94.8,31.688 C94.8,32.8080056 94.9839982,33.567998 95.352,33.968 C95.7200018,34.368002 96.3199958,34.568 97.152,34.568 C99.6480125,34.568 102.111988,32.1200245 104.544,27.224 L104.976,27.704 C104.079996,30.3920134 102.760009,32.4879925 101.016,33.992 C99.2719913,35.4960075 97.4400096,36.248 95.52,36.248 C94.3359941,36.248 93.4240032,35.8720038 92.784,35.12 C92.1439968,34.3679962 91.824,33.4000059 91.824,32.216 Z M99.312,12.68 C99.312,12.0399968 99.6959962,11.4640026 100.464,10.952 C101.232004,10.4399974 102.015996,10.184 102.816,10.184 C103.872005,10.184 104.4,10.6639952 104.4,11.624 C104.4,12.2640032 104.072003,12.8639972 103.416,13.424 C102.759997,13.9840028 102.048004,14.264 101.28,14.264 C99.9679934,14.264 99.312,13.7360053 99.312,12.68 Z M103.44,32.456 C103.44,29.7039862 104.367991,25.8480248 106.224,20.888 C105.455996,20.7599994 104.880002,20.6320006 104.496,20.504 L104.496,19.64 C105.648006,19.7680006 106.351999,19.832 106.608,19.832 C108.016007,16.1839818 109.527992,13.0240134 111.144,10.352 C112.760008,7.67998664 114.031995,6.344 114.96,6.344 C115.216001,6.344 115.447999,6.43999904 115.656,6.632 C115.864001,6.82400096 115.968,7.0799984 115.968,7.4 C115.968,7.8800024 115.656003,8.71199408 115.032,9.896 C114.407997,11.0800059 113.528006,12.6639901 112.392,14.648 C111.255994,16.6320099 110.320004,18.4079922 109.584,19.976 L111.36,19.976 C114.016013,19.976 116.30399,19.880001 118.224,19.688 L118.224,20.552 C114.831983,20.9360019 112.09601,21.128 110.016,21.128 L109.056,21.128 C107.295991,25.12802 106.416,28.5999853 106.416,31.544 C106.416,32.9840072 106.623998,33.9919971 107.04,34.568 C107.456002,35.1440029 108.143995,35.432 109.104,35.432 C110.736008,35.432 112.351992,34.7040073 113.952,33.248 C115.552008,31.7919927 116.975994,29.7840128 118.224,27.224 L118.848,27.704 C117.663994,30.4880139 116.06401,32.7679911 114.048,34.544 C112.03199,36.3200089 109.920011,37.208 107.712,37.208 C104.863986,37.208 103.44,35.6240158 103.44,32.456 Z M116.304,34.184 C116.304,33.6719974 116.607997,33.216 117.216,32.816 C117.824003,32.415998 118.447997,32.216 119.088,32.216 C119.920004,32.216 120.336,32.5999962 120.336,33.368 C120.336,33.8480024 120.072003,34.3199977 119.544,34.784 C119.015997,35.2480023 118.448003,35.48 117.84,35.48 C116.815995,35.48 116.304,35.0480043 116.304,34.184 Z M119.232,30.056 C119.232,28.5519925 120.111991,25.5120229 121.872,20.936 L123.744,16.088 L125.568,11.576 C126.336004,9.68799056 126.975997,8.21600528 127.488,7.16 L129.264,3.8 C129.904003,2.61599408 130.479997,1.76000264 130.992,1.232 C131.504003,0.70399736 131.967998,0.44 132.384,0.44 C132.640001,0.44 132.863999,0.54399896 133.056,0.752 C133.248001,0.96000104 133.344,1.2239984 133.344,1.544 C133.344,2.8240064 131.464019,7.19996264 127.704,14.672 C123.943981,22.1440374 121.120009,27.2719861 119.232,30.056 Z" id="Planit!" fill="#0F4D8A" fill-rule="nonzero"></path>
    </g>
</svg>